:version 1.10
:name ASF
:units
  mass 1
  length 1
  angle deg
:documentation
  ASF file generated by Kaydara
:root
  axis xyz
  order  tx ty tz rx ry rz
  position 0 0 0
  orientation 0 0 0
:bonedata
  begin
    id 1
    name lfemurDummy
    direction 0.61522 -0.761478 0.204097
    length 5.68318
    axis 0 -0 0 xyz
  end
  begin
    id 2
    name lfemur
    direction 0.34202 -0.939693 -5.84747e-008
    length 16.9147
    axis 0 -0 20 xyz
    dof rx ry rz
    limits( -inf , inf )
( -inf , inf )
( -inf , inf )

  end
  begin
    id 3
    name ltibia
    direction 0.34202 -0.939693 1.20839e-009
    length 18.0532
    axis 0 -0 20 xyz
    dof rz ry rx
    limits( -inf , inf )
( -inf , inf )
( -inf , inf )

  end
  begin
    id 4
    name lfoot
    direction 0.0841971 -0.23133 0.969225
    length 5.23822
    axis -90 7.62852e-016 20 xyz
    dof ry rx rz
    limits( -inf , inf )
( -inf , inf )
( -inf , inf )

  end
  begin
    id 5
    name ltoes
    direction 0 0 0
    length 0
    axis 0 0 0 xyz
    dof rz ry rx
    limits( -inf , inf )
( -inf , inf )
( -inf , inf )

  end
  begin
    id 6
    name rfemurDummy
    direction -0.625247 -0.75382 0.202044
    length 5.74091
    axis 0 -0 0 xyz
  end
  begin
    id 7
    name rfemur
    direction -0.34202 -0.939693 -1.47013e-008
    length 16.4922
    axis 0 -0 -20 xyz
    dof rx ry rz
    limits( -inf , inf )
( -inf , inf )
( -inf , inf )

  end
  begin
    id 8
    name rtibia
    direction -0.34202 -0.939693 -7.74345e-010
    length 18.2421
    axis 0 -0 -20 xyz
    dof rz ry rx
    limits( -inf , inf )
( -inf , inf )
( -inf , inf )

  end
  begin
    id 9
    name rfoot
    direction -0.124331 -0.341598 0.931586
    length 5.45787
    axis -90 -7.62852e-016 -20 xyz
    dof ry rx rz
    limits( -inf , inf )
( -inf , inf )
( -inf , inf )

  end
  begin
    id 10
    name rtoes
    direction 0 0 0
    length 0
    axis 0 0 0 xyz
    dof rz ry rx
    limits( -inf , inf )
( -inf , inf )
( -inf , inf )

  end
  begin
    id 11
    name lowerbackDummy
    direction 0 0 0
    length 0
    axis 0 -0 0 xyz
  end
  begin
    id 12
    name lowerback
    direction -0.0218484 0.994884 -0.0986304
    length 4.45607
    axis 0 -0 0 xyz
    dof rx ry rz
    limits( -inf , inf )
( -inf , inf )
( -inf , inf )

  end
  begin
    id 13
    name upperback
    direction -0.00973057 0.999717 -0.0217111
    length 4.47449
    axis 0 -0 0 xyz
    dof rx ry rz
    limits( -inf , inf )
( -inf , inf )
( -inf , inf )

  end
  begin
    id 14
    name thorax
    direction -0.000928171 0.999699 0.0245198
    length 4.50973
    axis 0 -0 0 xyz
    dof rx ry rz
    limits( -inf , inf )
( -inf , inf )
( -inf , inf )

  end
  begin
    id 15
    name rclavicle
    direction -0.9009 0.425937 -0.0834055
    length 7.28587
    axis 0 -0 0 xyz
    dof rx ry rz
    limits( -inf , inf )
( -inf , inf )
( -inf , inf )

  end
  begin
    id 16
    name rhumerus
    direction -1 -2.23604e-007 -1.42637e-007
    length 13.5704
    axis 180 30 90 xyz
    dof rx ry rz
    limits( -inf , inf )
( -inf , inf )
( -inf , inf )

  end
  begin
    id 17
    name rradius
    direction -1 5.68281e-008 -4.4952e-007
    length 8.06782
    axis 180 30 90 xyz
    dof rz ry rx
    limits( -inf , inf )
( -inf , inf )
( -inf , inf )

  end
  begin
    id 18
    name rwrist
    direction -1 1.51393e-007 1.38143e-007
    length 4.03391
    axis -90 -90 0 xyz
    dof rz rx ry
    limits( -inf , inf )
( -inf , inf )
( -inf , inf )

  end
  begin
    id 19
    name rthumb
    direction 0 0 0
    length 0
    axis 0 0 0 xyz
    dof ry rx rz
    limits( -inf , inf )
( -inf , inf )
( -inf , inf )

  end
  begin
    id 20
    name rhand
    direction -1 -3.34077e-007 -5.59631e-007
    length 1.29744
    axis -90 -90 0 xyz
    dof ry rx rz
    limits( -inf , inf )
( -inf , inf )
( -inf , inf )

  end
  begin
    id 21
    name rfingers
    direction 0 0 0
    length 0
    axis 0 0 0 xyz
    dof rz ry rx
    limits( -inf , inf )
( -inf , inf )
( -inf , inf )

  end
  begin
    id 22
    name lclavicle
    direction 0.940017 0.332249 -0.0773232
    length 8.29589
    axis 0 -0 0 xyz
    dof rx ry rz
    limits( -inf , inf )
( -inf , inf )
( -inf , inf )

  end
  begin
    id 23
    name lhumerus
    direction 1 7.41158e-008 -1.44768e-008
    length 12.0042
    axis 180 -30 -90 xyz
    dof rx ry rz
    limits( -inf , inf )
( -inf , inf )
( -inf , inf )

  end
  begin
    id 24
    name lradius
    direction 1 -1.32972e-007 3.10821e-007
    length 8.1902
    axis 180 -30 -90 xyz
    dof rz ry rx
    limits( -inf , inf )
( -inf , inf )
( -inf , inf )

  end
  begin
    id 25
    name lwrist
    direction 1 3.08957e-007 4.01394e-007
    length 4.09509
    axis -90 90 0 xyz
    dof rz rx ry
    limits( -inf , inf )
( -inf , inf )
( -inf , inf )

  end
  begin
    id 26
    name lthumb
    direction 0 0 0
    length 0
    axis 0 0 0 xyz
    dof ry rx rz
    limits( -inf , inf )
( -inf , inf )
( -inf , inf )

  end
  begin
    id 27
    name lhand
    direction 1 -1.64125e-007 -6.99514e-007
    length 1.37229
    axis -90 90 0 xyz
    dof ry rx rz
    limits( -inf , inf )
( -inf , inf )
( -inf , inf )

  end
  begin
    id 28
    name lfingers
    direction 0 0 0
    length 0
    axis 0 0 0 xyz
    dof rz ry rx
    limits( -inf , inf )
( -inf , inf )
( -inf , inf )

  end
  begin
    id 29
    name lowerneck
    direction -0.030798 0.998024 0.0547665
    length 3.93918
    axis 0 -0 0 xyz
    dof rx ry rz
    limits( -inf , inf )
( -inf , inf )
( -inf , inf )

  end
  begin
    id 30
    name upperneck
    direction 0.0531588 0.996611 -0.0627736
    length 3.95491
    axis 0 -0 0 xyz
    dof rx ry rz
    limits( -inf , inf )
( -inf , inf )
( -inf , inf )

  end
  begin
    id 31
    name head
    direction 0 0 0
    length 0
    axis 0 0 0 xyz
    dof rx ry rz
    limits( -inf , inf )
( -inf , inf )
( -inf , inf )

  end
:hierarchy
  begin
    root lfemurDummy rfemurDummy lowerbackDummy
    lfemurDummy lfemur
    lfemur ltibia
    ltibia lfoot
    lfoot ltoes
    rfemurDummy rfemur
    rfemur rtibia
    rtibia rfoot
    rfoot rtoes
    lowerbackDummy lowerback
    lowerback upperback
    upperback thorax
    thorax rclavicle lclavicle lowerneck
    rclavicle rhumerus
    rhumerus rradius
    rradius rwrist
    rwrist rthumb rhand
    rhand rfingers
    lclavicle lhumerus
    lhumerus lradius
    lradius lwrist
    lwrist lthumb lhand
    lhand lfingers
    lowerneck upperneck
    upperneck head
  end

:SAMPLES-PER-SECOND 30
:FULLY-SPECIFIED
:DEGREES
82
root  4.321289063 41.68022336 -0.4424688854 -9.963012695 -43.59100342 5.531005859
lowerback  5.109300137 0.4802750051 1.440400004
upperback  2.004309893 0.7096390128 2.199640036
thorax  -0.8143129945 0.342377007 1.409600019
lowerneck  -11.2816 4.909939766 -1.889709949
upperneck  18.05279922 5.988639832 5.457920074
head  7.147490025 3.216919899 2.635809898
lclavicle  0 -9.442270133e-015 7.951389973e-016
lhumerus  4.298260212 -22.15530014 84.95069885
lradius  2.645962579e-031 -2.338316931e-031 138.5319977
lwrist  -7.062250077e-031 -1.765562519e-031 4.452330112
lhand  -1.496451383e-031 -27.76390076 20.11240005
lfingers  90 7.125020027 -90
lthumb  89.89689403 5.08795885 91.16245106
rclavicle  0 -9.442270133e-015 7.951389973e-016
rhumerus  8.309410095 28.67280006 -79.23149872
rradius  -2.530684753e-031 2.462616234e-031 135.7810059
rwrist  7.062250077e-031 -3.531125038e-031 -9.792840004
rhand  -7.920061211e-032 -33.2840004 9.303460121
rfingers  -90 -7.125020027 -90
rthumb  -92.93752616 -24.25625642 -97.11982154
rfemur  -14.56669998 23.57309914 13.37839985
rtibia  -0 0 48.50749969
rfoot  -4.50827577e-032 -11.74380016 4.885019779
rtoes  5.373923086 19.29304026 -105.8922705
lfemur  -14.36170006 5.532320023 -21.20299911
ltibia  -0 0 52.9054985
lfoot  4.690256619e-032 0.8207209706 -0.1232530028
ltoes  -4.250644065 -19.5611806 -102.515957
83
root  4.336511056 41.67222151 -0.4020311232 -10.21899414 -44.11500549 5.861999512
lowerback  5.032050133 0.583509028 1.419690013
upperback  1.996610045 0.844192028 2.193670034
thorax  -0.7813060284 0.4097200036 1.408079982
lowerneck  -11.45530033 4.945809841 -1.550400019
upperneck  18.27519989 5.976769924 5.399759769
head  7.265240192 3.229150057 2.574140072
lclavicle  0 -9.442270133e-015 7.951389973e-016
lhumerus  4.728919983 -21.9409008 84.31939697
lradius  2.646574633e-031 -2.337624167e-031 138.5469971
lwrist  -7.062250077e-031 -3.531125038e-031 4.348120213
lhand  -1.496451383e-031 -27.76390076 20.11240005
lfingers  90 7.125020027 -90
lthumb  89.89689403 5.08795885 91.16245106
rclavicle  0 -9.442270133e-015 7.951389973e-016
rhumerus  8.582799911 29.02599907 -79.24749756
rradius  -2.523840566e-031 2.4696301e-031 135.621994
rwrist  1.412450015e-030 -0 -9.960309982
rhand  -7.920061211e-032 -33.2840004 9.303460121
rfingers  -90 -7.125020027 -90
rthumb  -92.93752616 -24.25625642 -97.11982154
rfemur  -14.55510044 23.14769936 13.32040024
rtibia  -0 0 49.61130142
rfoot  -4.513610261e-032 -12.06519985 4.652530193
rtoes  5.373923086 19.29304026 -105.8922705
lfemur  -14.63749981 4.675010204 -21.31049919
ltibia  -0 0 51.84550095
lfoot  4.414070278e-032 -0.4938730001 0.3238520026
ltoes  -4.250644065 -19.5611806 -102.515957
84
root  4.356888899 41.64177902 -0.3831666755 -10.32702637 -44.57400513 6.043029785
lowerback  5.061480045 0.6685029864 1.404539943
upperback  1.935850024 0.959724009 2.228379965
thorax  -0.8626210093 0.4671849906 1.445009947
lowerneck  -11.54230022 4.967189789 -1.299200058
upperneck  18.35750008 5.94618988 5.436220169
head  7.316530228 3.235150099 2.548259974
lclavicle  0 -9.442270133e-015 7.951389973e-016
lhumerus  5.102600098 -21.89539909 83.68409729
lradius  2.65345844e-031 -2.329807362e-031 138.7160034
lwrist  -3.531125038e-031 -1.765562519e-031 4.022119999
lhand  -1.496451383e-031 -27.76390076 20.11240005
lfingers  90 7.125020027 -90
lthumb  89.89689403 5.08795885 91.16245106
rclavicle  0 -9.442270133e-015 7.951389973e-016
rhumerus  9.031760216 29.21150017 -79.1792984
rradius  -2.514685854e-031 2.478951208e-031 135.4100037
rwrist  7.062250077e-031 -0 -10.0632
rhand  -7.920061211e-032 -33.2840004 9.303460121
rfingers  -90 -7.125020027 -90
rthumb  -92.93752616 -24.25625642 -97.11982154
rfemur  -14.61970043 22.71229935 13.40909958
rtibia  -0 0 50.88090134
rfoot  -4.520568869e-032 -12.47109985 4.658040047
rtoes  5.373923086 19.29304026 -105.8922705
lfemur  -15.0948 3.823400021 -21.2567997
ltibia  -0 0 50.99089813
lfoot  4.415602235e-032 -1.588039994 0.8336660266
ltoes  -4.250644065 -19.5611806 -102.515957
85
root  4.375999931 41.57088873 -0.3824022107 -10.42498779 -45.08099365 6.210021973
lowerback  5.136970043 0.7890290022 1.360890031
upperback  1.855620027 1.123200059 2.255510092
thorax  -0.9909729958 0.5485879779 1.486320019
lowerneck  -11.33969975 4.960179806 -1.135059953
upperneck  18.14089966 5.896890163 5.499680042
head  7.215710163 3.226629972 2.524349928
lclavicle  0 -9.442270133e-015 7.951389973e-016
lhumerus  5.260930061 -22.11800003 83.15730286
lradius  2.666590285e-031 -2.314765709e-031 139.0399933
lwrist  -3.531125038e-031 -3.531125038e-031 3.678319931
lhand  -1.496451383e-031 -27.76390076 20.11240005
lfingers  90 7.125020027 -90
lthumb  89.89689403 5.08795885 91.16245106
rclavicle  0 -9.442270133e-015 7.951389973e-016
rhumerus  9.408849716 29.31010056 -79.19680023
rradius  -2.510398825e-031 2.483292528e-031 135.3110046
rwrist  7.062250077e-031 -1.765562519e-031 -10.10919952
rhand  -7.920061211e-032 -33.2840004 9.303460121
rfingers  -90 -7.125020027 -90
rthumb  -92.93752616 -24.25625642 -97.11982154
rfemur  -14.75669956 22.35740089 13.57549953
rtibia  -0 0 52.32030106
rfoot  -4.525540959e-032 -12.75259972 4.640550137
rtoes  5.373923086 19.29304026 -105.8922705
lfemur  -15.63679981 2.95223999 -21.14139938
ltibia  -0 0 50.27059937
lfoot  4.418068378e-032 -2.487200022 1.368899941
ltoes  -4.250644065 -19.5611806 -102.515957
86
root  4.388422102 41.46955595 -0.3758311037 -10.91101074 -45.63200378 6.638000488
lowerback  5.346580029 0.9497079849 1.176470041
upperback  1.86135006 1.332749963 2.182640076
thorax  -1.107879996 0.6530460119 1.498950005
lowerneck  -11.08930016 4.933199883 -0.8686079979
upperneck  17.80979919 5.826089859 5.458570004
head  7.077569962 3.204030037 2.443589926
lclavicle  0 -9.442270133e-015 7.951389973e-016
lhumerus  5.37446022 -22.28300095 82.57910156
lradius  2.677509349e-031 -2.302126782e-031 139.3110046
lwrist  -1.059337512e-030 -1.765562519e-031 3.365999937
lhand  -1.496451383e-031 -27.76390076 20.11240005
lfingers  90 7.125020027 -90
lthumb  89.89689403 5.08795885 91.16245106
rclavicle  0 -9.442270133e-015 7.951389973e-016
rhumerus  9.469679832 29.41139984 -79.3914032
rradius  -2.517583005e-031 2.476008855e-031 135.477005
rwrist  7.062250077e-031 -0 -9.953639984
rhand  -7.920061211e-032 -33.2840004 9.303460121
rfingers  -90 -7.125020027 -90
rthumb  -92.93752616 -24.25625642 -97.11982154
rfemur  -14.65880013 22.09059906 13.66020012
rtibia  -0 0 53.87540054
rfoot  -4.526451047e-032 -12.80340004 4.615880013
rtoes  5.373923086 19.29304026 -105.8922705
lfemur  -15.89900017 2.168359995 -21.1942997
ltibia  -0 0 49.61439896
lfoot  4.422175575e-032 -3.504460096 1.929360032
ltoes  -4.250644065 -19.5611806 -102.515957
87
root  4.395622344 41.34999974 -0.369237774 -11.63098145 -46.10099792 7.273986816
lowerback  5.621469975 1.044659972 0.7780969739
upperback  1.909700036 1.442430019 2.125099897
thorax  -1.221760035 0.7072920203 1.651929975
lowerneck  -10.94480038 4.971290112 -0.8884739876
upperneck  17.51939964 5.872350216 5.562419891
head  6.95235014 3.23258996 2.470580101
lclavicle  0 -9.442270133e-015 7.951389973e-016
lhumerus  5.385630131 -22.24900055 82.04660034
lradius  2.68768856e-031 -2.290234539e-031 139.5650024
lwrist  -3.531125038e-031 -3.531125038e-031 3.015409946
lhand  -1.496451383e-031 -27.76390076 20.11240005
lfingers  90 7.125020027 -90
lthumb  89.89689403 5.08795885 91.16245106
rclavicle  0 -9.442270133e-015 7.951389973e-016
rhumerus  9.566249847 29.64100075 -79.53839874
rradius  -2.528017961e-031 2.465353773e-031 135.7189941
rwrist  7.062250077e-031 -1.765562519e-031 -9.933839798
rhand  -7.920061211e-032 -33.2840004 9.303460121
rfingers  -90 -7.125020027 -90
rthumb  -92.93752616 -24.25625642 -97.11982154
rfemur  -14.39430046 21.85409927 13.63090038
rtibia  -0 0 55.45930099
rfoot  -4.522442889e-032 -12.57800007 4.679200172
rtoes  5.373923086 19.29304026 -105.8922705
lfemur  -16.03499985 1.516100049 -21.38570023
ltibia  -0 0 48.9864006
lfoot  4.427246339e-032 -4.448959827 2.492360115
ltoes  -4.250644065 -19.5611806 -102.515957
88
root  4.402555631 41.20755534 -0.3628044382 -12.36602783 -46.4960022 7.838989258
lowerback  5.961649895 1.110419989 0.428294003
upperback  1.998569965 1.512989998 2.070709944
thorax  -1.329069972 0.7417839766 1.782209992
lowerneck  -10.95189953 5.011370182 -0.9647110105
upperneck  17.29759979 5.92110014 5.714700222
head  6.872469902 3.264400005 2.529350042
lclavicle  0 -9.442270133e-015 7.951389973e-016
lhumerus  5.338990211 -22.25699997 81.59729767
lradius  2.696064296e-031 -2.280368687e-031 139.7749939
lwrist  -1.059337512e-030 -3.531125038e-031 2.664050102
lhand  -1.496451383e-031 -27.76390076 20.11240005
lfingers  90 7.125020027 -90
lthumb  89.89689403 5.08795885 91.16245106
rclavicle  0 -9.442270133e-015 7.951389973e-016
rhumerus  9.871689796 29.75130081 -79.58779907
rradius  -2.53557948e-031 2.457576192e-031 135.8950043
rwrist  0 -0 -10.11219978
rhand  -7.920061211e-032 -33.2840004 9.303460121
rfingers  -90 -7.125020027 -90
rthumb  -92.93752616 -24.25625642 -97.11982154
rfemur  -13.97239971 21.69239998 13.73639965
rtibia  -0 0 56.94329834
rfoot  -9.027712515e-032 -12.07979965 4.617509842
rtoes  5.373923086 19.29304026 -105.8922705
lfemur  -16.08209991 0.9316779971 -21.50349998
ltibia  -0 0 48.40259933
lfoot  4.432871312e-032 -5.301839828 2.915580034
ltoes  -4.250644065 -19.5611806 -102.515957
89
root  4.407577815 41.05933482 -0.3521866686 -13.14099121 -46.84399414 8.442016602
lowerback  6.322539806 1.180789948 0.1013960019
upperback  2.093430042 1.587939978 1.982849956
thorax  -1.44077003 0.7785840034 1.863989949
lowerneck  -10.92520046 5.010940075 -1.123649955
upperneck  16.96890068 5.936540127 5.856579781
head  6.751070023 3.273550034 2.590770006
lclavicle  0 -9.442270133e-015 7.951389973e-016
lhumerus  5.201189995 -22.16860008 81.229599
lradius  2.702501203e-031 -2.272736519e-031 139.9369965
lwrist  -3.531125038e-031 -3.531125038e-031 2.277889967
lhand  -1.496451383e-031 -27.76390076 20.11240005
lfingers  90 7.125020027 -90
lthumb  89.89689403 5.08795885 91.16245106
rclavicle  0 -9.442270133e-015 7.951389973e-016
rhumerus  10.19970036 29.81310081 -79.58450317
rradius  -2.540592182e-031 2.452393811e-031 136.0119934
rwrist  7.062250077e-031 -1.765562519e-031 -10.11200047
rhand  -7.920061211e-032 -33.2840004 9.303460121
rfingers  -90 -7.125020027 -90
rthumb  -92.93752616 -24.25625642 -97.11982154
rfemur  -13.45330048 21.53730011 13.86460018
rtibia  -0 0 58.1853981
rfoot  -8.999617981e-032 -11.21339989 4.480810165
rtoes  5.373923086 19.29304026 -105.8922705
lfemur  -16.13839912 0.3634580076 -21.64859962
ltibia  -0 0 47.91329956
lfoot  4.438369613e-032 -6.018430233 2.975909948
ltoes  -4.250644065 -19.5611806 -102.515957
